<svg id="Component_11_2" data-name="Component 11 – 2" xmlns="http://www.w3.org/2000/svg" width="28.1" height="28.173" viewBox="0 0 28.1 28.173">
  <g id="Group_70" data-name="Group 70">
    <path id="Path_56" data-name="Path 56" d="M14.572,16.279c1.244,1.266,2.5,2.519,3.723,3.806.335.352.466.083.652-.1q3.31-3.3,6.617-6.609A1.4,1.4,0,1,1,27.54,15.3q-6.148,6.162-12.31,12.31a1.391,1.391,0,0,1-2.217.015Q6.774,21.378.552,15.109A1.388,1.388,0,0,1,.547,12.9Q6.691,6.734,12.847.582a1.418,1.418,0,0,1,2.3.019q3.1,3.1,6.187,6.213a1.468,1.468,0,0,1,.019,2.45Q20.185,10.478,19,11.676a1.416,1.416,0,0,1-2.119.179,1.4,1.4,0,0,1,.141-2.114c.458-.49.92-.977,1.4-1.448.2-.2.2-.318-.008-.52q-2.073-2.06-4.118-4.148c-.216-.221-.329-.237-.559-.007Q8.686,8.68,3.62,13.717c-.218.217-.222.343,0,.565q5.1,5.1,10.17,10.222c.274.277.432.225.671-.024.568-.595,1.139-1.189,1.748-1.741.358-.324.358-.52.012-.866-2.466-2.463-4.911-4.947-7.361-7.425-.213-.215-.422-.435-.625-.66a1.326,1.326,0,0,1-.017-1.975q2.116-2.2,4.289-4.341a1.337,1.337,0,0,1,2.015-.07A1.381,1.381,0,0,1,14.4,9.473c-.969.991-1.94,1.979-2.929,2.95-.265.26-.366.419-.022.706a15.847,15.847,0,0,0,1.166,1.116,17.522,17.522,0,0,0,1.957,2.035" transform="translate(0 0)" fill="#fff"/>
    <path id="Path_57" data-name="Path 57" d="M98.979,96.535A17.522,17.522,0,0,1,97.022,94.5a12.353,12.353,0,0,1,2.087-2,1.328,1.328,0,0,1,1.762.213,1.4,1.4,0,0,1,0,1.838c-.435.477-.929.9-1.4,1.346-.2.189-.476.315-.5.639" transform="translate(-84.406 -80.256)" fill="#aba6ab"/>
  </g>
</svg>
